<?xml version="1.0" encoding="UTF-8" standalone="no"?>
<svg
   fill="none"
   height="100"
   viewBox="0 0 100 99.999997"
   width="100"
   version="1.1"
   id="svg170"
   sodipodi:docname="logo.svg"
   inkscape:version="1.2.2 (732a01da63, 2022-12-09, custom)"
   inkscape:export-filename="../4ce09615/logo.png"
   inkscape:export-xdpi="200"
   inkscape:export-ydpi="200"
   xmlns:inkscape="http://www.inkscape.org/namespaces/inkscape"
   xmlns:sodipodi="http://sodipodi.sourceforge.net/DTD/sodipodi-0.dtd"
   xmlns="http://www.w3.org/2000/svg"
   xmlns:svg="http://www.w3.org/2000/svg">
  <defs
     id="defs174" />
  <sodipodi:namedview
     id="namedview172"
     pagecolor="#ffffff"
     bordercolor="#666666"
     borderopacity="1.0"
     inkscape:showpageshadow="false"
     inkscape:pageopacity="0"
     inkscape:pagecheckerboard="false"
     inkscape:deskcolor="#d1d1d1"
     showgrid="false"
     inkscape:zoom="6.8206342"
     inkscape:cx="49.408895"
     inkscape:cy="53.514085"
     inkscape:window-width="2454"
     inkscape:window-height="1501"
     inkscape:window-x="1881"
     inkscape:window-y="627"
     inkscape:window-maximized="0"
     inkscape:current-layer="svg170"
     shape-rendering="auto" />
  <g
     stroke="#ffffff"
     id="g168"
     transform="matrix(5.7470097,0,0,5.7470097,-18.426535,-19.49553)">
    <path
       d="M 18.9875,17.7908 13.9551,9.72911 C 13.6577,9.25263 13.5,8.70222 13.5,8.14052 V 5.57029 C 13.5,5.5235 13.5031,5.47705 13.5118,5.43107 13.5493,5.23294 13.6822,4.66555 14,4.50002 c 0.287,-0.14947 -4.34868,-0.14876 -4,0 0.3369,0.14373 0.4604,0.75004 0.4915,0.94168 C 10.4978,5.4806 10.5,5.51977 10.5,5.55918 v 2.58134 c 0,0.5617 -0.1577,1.11211 -0.4551,1.58859 L 5.01251,17.7908 C 4.7005,18.2907 4.765,18.901 5.32534,19.0833 c 2.67863,0.8714 10.67066,0.8714 13.34936,0 0.5603,-0.1823 0.6248,-0.7926 0.3128,-1.2925 z"
       stroke-linecap="round"
       id="path148" />
    <path
       d="m 16,13.6118 c -1.5,1 -2.1676,-1.2493 -4.5,0.5 -2,1.5 -3,-0.5 -3.5,-0.5"
       stroke-linecap="round"
       id="path150" />
    <g
       stroke-linejoin="round"
       id="g166">
      <path
         d="m 13.5,15 h 0.01 v 0.01 H 13.5 Z"
         id="path152" />
      <path
         d="M 12.49,16.99 H 12.5 V 17 h -0.01 z"
         id="path154" />
      <path
         d="M 7.49,17.99 H 7.5 V 18 H 7.49 Z"
         id="path156" />
      <path
         d="m 14,18 h 0.01 v 0.01 H 14 Z"
         id="path158" />
      <path
         d="m 15.5,16.49 h 0.01 V 16.5 H 15.5 Z"
         id="path160" />
      <path
         d="M 9.5,17.49 H 9.51 V 17.5 H 9.5 Z"
         id="path162" />
      <path
         d="m 8.5,16 h 0.01 v 0.01 H 8.5 Z"
         id="path164" />
    </g>
  </g>
</svg>
